#!OML:ASF H:\Terrain\Patient Classification 1\Animal1\Tuesday\Animal1.ASF
:FULLY-SPECIFIED
:DEGREES
3457
root 13.5302 16.1975 -12.6721 14.068 -28.6446 2.99638
lowerback 4.49826 -3.49488 3.13164
upperback -1.96213 -4.19776 9.34389
thorax -4.09839 -2.09535 8.44506
lowerneck 12.0278 -0.301883 -9.62443
upperneck 1.63786 -1.94688 -5.18443
head -1.47865 -0.912042 0.0796169
rclavicle 2.94201e-014 -4.13472e-014
rhumerus -3.08013 -19.7805 4.68645
rradius 26.2649
rwrist -55.3188
rhand -28.4451 0.172663
rfingers 7.12502
rthumb -1.81581 -29.7994
lclavicle 2.94201e-014 -4.13472e-014
lhumerus -22.9005 -15.3767 9.3003
lradius 20.0358
lwrist -45.1214
lhand 6.11206 56.4767
lfingers 7.12502
lthumb 31.4301 -276.205
rfemur -36.7305 14.49 16.1818
rtibia 37.5625
rfoot -12.4654 -21.7303
rtoes -2.78525
lfemur -27.9678 -13.6568 -22.6295
ltibia 32.9488
lfoot -18.2292 13.8806
ltoes 0.0398553
3458
root 13.5319 16.1995 -12.6617 14.2196 -28.9167 2.78057
lowerback 4.46955 -3.46635 3.36919
upperback -1.99983 -4.14438 9.34591
thorax -4.1453 -2.07433 8.30803
lowerneck 12.0132 -0.273101 -9.86367
upperneck 1.90339 -1.92106 -5.09661
head -1.38581 -0.918598 0.144217
rclavicle -3.65764e-014 -3.18055e-015
rhumerus -3.51684 -15.9667 5.49566
rradius 26.299
rwrist -54.4639
rhand -27.3149 0.97635
rfingers 7.12502
rthumb -0.72418 -29.0022
lclavicle -3.65764e-014 -3.18055e-015
lhumerus -22.4896 -13.7663 8.82849
lradius 20.1093
lwrist -42.1731
lhand 7.19575 57.3524
lfingers 7.12502
lthumb 32.462 -275.535
rfemur -36.7939 14.6011 16.345
rtibia 37.5249
rfoot -12.3791 -21.4641
rtoes -2.57428
lfemur -28.0169 -13.4847 -22.4808
ltibia 33.0178
lfoot -18.238 14.0521
ltoes -0.738381
3459
root 13.5336 16.2029 -12.6473 14.2198 -29.1342 2.73162
lowerback 4.4362 -3.43255 3.51216
upperback -1.97233 -4.09702 9.28317
thorax -4.11736 -2.05549 8.14884
lowerneck 11.9235 -0.318864 -10.0147
upperneck 2.17873 -1.97053 -5.01877
head -1.27578 -0.963573 0.193265
rclavicle -7.95139e-015 1.90833e-014
rhumerus -3.84848 -13.0995 6.1618
rradius 26.0606
rwrist -52.3781
rhand -26.3518 1.35049
rfingers 7.12502
rthumb 0.206002 -28.6292
lclavicle -7.95139e-015 1.90833e-014
lhumerus -22.0496 -12.2276 8.3721
lradius 20.182
lwrist -38.9431
lhand 7.51496 57.7297
lfingers 7.12502
lthumb 32.7657 -275.221
rfemur -36.7425 14.5703 16.4017
rtibia 37.4811
rfoot -12.1774 -21.2456
rtoes -3.10972
lfemur -27.9711 -13.2976 -22.5387
ltibia 33.1301
lfoot -18.2991 14.1303
ltoes -1.63017
3460
root 13.5335 16.2001 -12.6367 14.1961 -29.3345 2.74039
lowerback 4.38383 -3.4135 3.65097
upperback -1.92874 -4.07405 9.13635
thorax -4.06413 -2.0492 7.89865
lowerneck 11.7606 -0.345804 -10.0067
upperneck 2.47536 -1.95916 -4.86482
head -1.14873 -0.980431 0.236273
rclavicle 1.51076e-014 4.77083e-014
rhumerus -4.19186 -10.2959 6.65709
rradius 25.7862
rwrist -50.2009
rhand -26.0195 1.83487
rfingers 7.12502
rthumb 0.526873 -28.1442
lclavicle 1.51076e-014 4.77083e-014
lhumerus -22.014 -10.5048 7.79612
lradius 20.7937
lwrist -35.7877
lhand 7.43141 57.8647
lfingers 7.12502
lthumb 32.6862 -275.069
rfemur -36.7083 14.5777 16.3947
rtibia 37.434
rfoot -12.2151 -21.059
rtoes -3.25473
lfemur -27.9439 -13.1156 -22.6323
ltibia 33.2582
lfoot -18.3255 14.2114
ltoes -2.53225
3461
root 13.5317 16.196 -12.628 14.3112 -29.5598 2.51178
lowerback 4.34236 -3.4297 3.9678
upperback -1.91417 -4.08334 9.04492
thorax -4.0532 -2.06291 7.61439
lowerneck 11.7804 -0.280266 -10.0519
upperneck 2.56242 -1.87138 -4.68527
head -1.1244 -0.945433 0.296912
rclavicle -7.15625e-015 6.36111e-015
rhumerus -4.48456 -6.60096 7.10618
rradius 25.7386
rwrist -49.2367
rhand -26.528 2.09978
rfingers 7.12502
rthumb 0.0357777 -27.88
lclavicle -7.15625e-015 6.36111e-015
lhumerus -22.2451 -8.75235 7.18568
lradius 21.8187
lwrist -32.4238
lhand 7.86874 58.2031
lfingers 7.12502
lthumb 33.1022 -274.818
rfemur -36.7138 14.7828 16.5562
rtibia 37.3887
rfoot -12.4107 -20.9203
rtoes -2.6201
lfemur -27.9536 -12.9725 -22.4601
ltibia 33.365
lfoot -18.2764 14.3335
ltoes -2.27918
3462
root 13.5303 16.1911 -12.6216 14.33 -29.8145 2.37602
lowerback 4.46078 -3.44506 4.108
upperback -1.94154 -4.08235 8.99584
thorax -4.16291 -2.06511 7.49343
lowerneck 11.9298 -0.180916 -10.1816
upperneck 2.52734 -1.77783 -4.55983
head -1.16297 -0.898764 0.356676
rclavicle -2.94201e-014 4.77083e-014
rhumerus -4.70268 -3.07041 7.63134
rradius 25.7373
rwrist -48.7557
rhand -26.2823 2.1108
rfingers 7.12502
rthumb 0.273111 -27.8688
lclavicle -2.94201e-014 4.77083e-014
lhumerus -22.4434 -6.8379 6.62687
lradius 22.5442
lwrist -29.4235
lhand 8.62329 58.8824
lfingers 7.12502
lthumb 33.8194 -274.294
rfemur -36.6659 14.9276 16.6587
rtibia 37.3444
rfoot -12.374 -20.841
rtoes -2.59577
lfemur -27.8928 -12.8637 -22.3711
ltibia 33.4569
lfoot -18.2915 14.3408
ltoes -1.06245
3463
root 13.5297 16.1903 -12.6106 14.2604 -30.0846 2.33508
lowerback 4.54905 -3.42795 4.20184
upperback -1.94531 -4.04607 8.92111
thorax -4.23234 -2.04913 7.36383
lowerneck 12.0369 -0.095483 -10.3816
upperneck 2.57133 -1.69915 -4.33986
head -1.16721 -0.866995 0.45816
rclavicle -1.00983e-013 1.46306e-013
rhumerus -4.96066 0.239408 8.21264
rradius 25.7533
rwrist -48.5716
rhand -25.4598 2.47362
rfingers 7.12502
rthumb 1.06745 -27.5035
lclavicle -1.00983e-013 1.46306e-013
lhumerus -22.2154 -4.26839 5.997
lradius 22.521
lwrist -27.6377
lhand 9.27527 59.3235
lfingers 7.12502
lthumb 34.4386 -273.991
rfemur -36.5356 14.9861 16.7059
rtibia 37.3117
rfoot -12.3832 -20.6599
rtoes -2.62625
lfemur -27.7315 -12.7654 -22.4126
ltibia 33.5178
lfoot -18.4972 14.4491
ltoes -0.904001
3464
root 13.5292 16.1938 -12.5953 14.2313 -30.3485 2.30638
lowerback 4.5135 -3.39813 4.35595
upperback -1.9406 -4.00267 8.80102
thorax -4.23018 -2.03227 7.13901
lowerneck 12.2177 -0.0379621 -10.4838
upperneck 2.53351 -1.65828 -4.09925
head -1.21103 -0.848011 0.553415
rclavicle -1.59028e-014 -1.27222e-014
rhumerus -5.23941 3.24606 8.71662
rradius 25.744
rwrist -48.1839
rhand -24.8351 2.8898
rfingers 7.12502
rthumb 1.67083 -27.0834
lclavicle -1.59028e-014 -1.27222e-014
lhumerus -21.384 -1.6357 5.33025
lradius 21.7936
lwrist -26.3452
lhand 9.46736 59.0057
lfingers 7.12502
lthumb 34.621 -274.351
rfemur -36.4754 15.1035 16.6988
rtibia 37.3214
rfoot -12.5478 -20.4718
rtoes -2.53619
lfemur -27.5922 -12.603 -22.4952
ltibia 33.5213
lfoot -18.6594 14.6079
ltoes -1.49015
3465
root 13.5279 16.1887 -12.5899 14.2257 -30.6163 2.33811
lowerback 4.5223 -3.37917 4.37916
upperback -1.92307 -3.97904 8.6773
thorax -4.22867 -2.02176 6.98882
lowerneck 12.2058 0.0446118 -10.6386
upperneck 2.55558 -1.55889 -3.77312
head -1.20347 -0.80774 0.680399
rclavicle -3.57812e-014 5.40694e-014
rhumerus -5.43153 5.13552 9.04755
rradius 25.4751
rwrist -46.7235
rhand -23.7211 3.28963
rfingers 7.12502
rthumb 2.74674 -26.6724
lclavicle -3.57812e-014 5.40694e-014
lhumerus -20.7595 0.368581 4.76874
lradius 21.2844
lwrist -24.3161
lhand 8.95853 58.4034
lfingers 7.12502
lthumb 34.1379 -274.844
rfemur -36.5678 15.2542 16.6168
rtibia 37.3928
rfoot -12.6802 -20.3514
rtoes -2.56127
lfemur -27.5849 -12.3527 -22.5912
ltibia 33.5066
lfoot -18.493 14.7685
ltoes -3.09322
